{
	"asset":{
		"generator":"Khronos glTF Blender I/O v4.3.47",
		"version":"2.0"
	},
	"scene":0,
	"scenes":[
		{
			"name":"Scene",
			"nodes":[
				10
			]
		}
	],
	"nodes":[
		{
			"name":"Bag_8"
		},
		{
			"name":"Bonfire_7"
		},
		{
			"name":"Floor_6"
		},
		{
			"name":"Body.001_0"
		},
		{
			"mesh":0,
			"name":"Object_7",
			"translation":[
				-0.41319164633750916,
				0,
				1.0900388956069946
			]
		},
		{
			"children":[
				4
			],
			"name":"Head.001_1"
		},
		{
			"children":[
				3,
				5
			],
			"name":"Santa Claus_2",
			"rotation":[
				0,
				-0.2990526258945465,
				0,
				0.954236626625061
			],
			"translation":[
				0.9586067795753479,
				0,
				-0.6566764712333679
			]
		},
		{
			"name":"Snow_12"
		},
		{
			"children":[
				0,
				1,
				2,
				6,
				7
			],
			"name":"GLTF_SceneRootNode",
			"rotation":[
				0.70710688829422,
				0,
				0,
				0.7071066498756409
			]
		},
		{
			"children":[
				8
			],
			"name":"root"
		},
		{
			"children":[
				9
			],
			"name":"Sketchfab_model",
			"rotation":[
				-0.70710688829422,
				0,
				0,
				0.7071066498756409
			]
		}
	],
	"materials":[
		{
			"doubleSided":true,
			"name":"Head",
			"pbrMetallicRoughness":{
				"baseColorTexture":{
					"index":0
				},
				"metallicFactor":0
			}
		}
	],
	"meshes":[
		{
			"name":"Object_1",
			"primitives":[
				{
					"attributes":{
						"POSITION":0,
						"NORMAL":1,
						"TEXCOORD_0":2
					},
					"indices":3,
					"material":0
				}
			]
		}
	],
	"textures":[
		{
			"sampler":0,
			"source":0
		}
	],
	"images":[
		{
			"mimeType":"image/png",
			"name":"Head_baseColor",
			"uri":"Head_baseColor.png"
		}
	],
	"accessors":[
		{
			"bufferView":0,
			"componentType":5126,
			"count":1807,
			"max":[
				0.348213791847229,
				1.50204598903656,
				0.369950532913208
			],
			"min":[
				-0.3482137620449066,
				0.563776969909668,
				-0.46611857414245605
			],
			"type":"VEC3"
		},
		{
			"bufferView":1,
			"componentType":5126,
			"count":1807,
			"type":"VEC3"
		},
		{
			"bufferView":2,
			"componentType":5126,
			"count":1807,
			"type":"VEC2"
		},
		{
			"bufferView":3,
			"componentType":5123,
			"count":9348,
			"type":"SCALAR"
		}
	],
	"bufferViews":[
		{
			"buffer":0,
			"byteLength":21684,
			"byteOffset":0,
			"target":34962
		},
		{
			"buffer":0,
			"byteLength":21684,
			"byteOffset":21684,
			"target":34962
		},
		{
			"buffer":0,
			"byteLength":14456,
			"byteOffset":43368,
			"target":34962
		},
		{
			"buffer":0,
			"byteLength":18696,
			"byteOffset":57824,
			"target":34963
		}
	],
	"samplers":[
		{
			"magFilter":9729,
			"minFilter":9987
		}
	],
	"buffers":[
		{
			"byteLength":76520,
			"uri":"scene.bin"
		}
	]
}
