{
  "accessors": [
    {
      "bufferView": 2,
      "componentType": 5126,
      "count": 19279,
      "max": [
        1.0439485311508179,
        0.3706534504890442,
        1.0043528079986572
      ],
      "min": [
        -1.0390653610229492,
        -0.38047683238983154,
        -1.0043528079986572
      ],
      "type": "VEC3"
    },
    {
      "bufferView": 2,
      "byteOffset": 231348,
      "componentType": 5126,
      "count": 19279,
      "max": [
        1.0,
        1.0,
        1.0
      ],
      "min": [
        -1.0,
        -1.0,
        -1.0
      ],
      "type": "VEC3"
    },
    {
      "bufferView": 1,
      "componentType": 5126,
      "count": 19279,
      "max": [
        1.0000001192092896,
        0.9966334104537964
      ],
      "min": [
        0.0,
        0.0023005008697509766
      ],
      "type": "VEC2"
    },
    {
      "bufferView": 0,
      "componentType": 5125,
      "count": 113328,
      "type": "SCALAR"
    }
  ],
  "asset": {
    "extras": {
      "author": "Arovdev (https://sketchfab.com/arovdev)",
      "license": "CC-BY-4.0 (http://creativecommons.org/licenses/by/4.0/)",
      "source": "https://sketchfab.com/3d-models/chips-arovdev-98486374994e432db3746a0fd6235b6b",
      "title": "Chips | Arovdev"
    },
    "generator": "Sketchfab-15.37.0",
    "version": "2.0"
  },
  "bufferViews": [
    {
      "buffer": 0,
      "byteLength": 453312,
      "name": "floatBufferViews",
      "target": 34963
    },
    {
      "buffer": 0,
      "byteLength": 154232,
      "byteOffset": 453312,
      "byteStride": 8,
      "name": "floatBufferViews",
      "target": 34962
    },
    {
      "buffer": 0,
      "byteLength": 462696,
      "byteOffset": 607544,
      "byteStride": 12,
      "name": "floatBufferViews",
      "target": 34962
    }
  ],
  "buffers": [
    {
      "byteLength": 1070240,
      "uri": "scene.bin"
    }
  ],
  "images": [
    {
      "uri": "textures/doritos_texture_baseColor.jpeg"
    }
  ],
  "materials": [
    {
      "doubleSided": true,
      "name": "doritos_texture",
      "pbrMetallicRoughness": {
        "baseColorTexture": {
          "index": 0
        },
        "metallicFactor": 0.0,
        "roughnessFactor": 0.25
      }
    }
  ],
  "meshes": [
    {
      "name": "Object_0",
      "primitives": [
        {
          "attributes": {
            "NORMAL": 1,
            "POSITION": 0,
            "TEXCOORD_0": 2
          },
          "indices": 3,
          "material": 0,
          "mode": 4
        }
      ]
    }
  ],
  "nodes": [
    {
      "children": [
        1
      ],
      "matrix": [
        -0.22525063157081604,
        0.1607159227132795,
        0.960953950881958,
        0.0,
        0.9526612758636475,
        -0.1703865379095078,
        0.251803308725357,
        0.0,
        0.20420242846012115,
        0.9721825122833252,
        -0.11472815275192239,
        0.0,
        0.0,
        0.0,
        0.0,
        1.0
      ],
      "name": "Sketchfab_model"
    },
    {
      "children": [
        2
      ],
      "name": "root"
    },
    {
      "children": [
        3
      ],
      "matrix": [
        1.0,
        0.0,
        0.0,
        0.0,
        0.0,
        2.220446049250313e-16,
        1.0,
        0.0,
        0.0,
        -1.0,
        2.220446049250313e-16,
        0.0,
        0.0,
        0.0,
        0.0,
        1.0
      ],
      "name": "GLTF_SceneRootNode"
    },
    {
      "children": [
        4
      ],
      "matrix": [
        8.429369480200677e-08,
        -0.9999999999999966,
        -0.0,
        0.0,
        0.9999999999999966,
        8.429369480200677e-08,
        0.0,
        0.0,
        0.0,
        -0.0,
        0.6541785001754761,
        0.0,
        0.0,
        0.0,
        0.0,
        1.0
      ],
      "name": "chips_1"
    },
    {
      "mesh": 0,
      "name": "Object_4"
    }
  ],
  "samplers": [
    {
      "magFilter": 9729,
      "minFilter": 9987,
      "wrapS": 10497,
      "wrapT": 10497
    }
  ],
  "scene": 0,
  "scenes": [
    {
      "name": "Sketchfab_Scene",
      "nodes": [
        0
      ]
    }
  ],
  "textures": [
    {
      "sampler": 0,
      "source": 0
    }
  ]
}
