{
  "accessors": [
    {
      "bufferView": 2,
      "componentType": 5126,
      "count": 972,
      "max": [
        13.719097137451172,
        40.94852828979492,
        12.013425827026367
      ],
      "min": [
        -13.719097137451172,
        0.0,
        -12.013425827026367
      ],
      "type": "VEC3"
    },
    {
      "bufferView": 2,
      "byteOffset": 11664,
      "componentType": 5126,
      "count": 972,
      "max": [
        0.9997334480285645,
        0.9934455156326294,
        0.9996456503868103
      ],
      "min": [
        -0.999396562576294,
        -0.999514102935791,
        -0.9992643594741821
      ],
      "type": "VEC3"
    },
    {
      "bufferView": 1,
      "componentType": 5126,
      "count": 972,
      "max": [
        0.9890194535255432,
        0.9897994995117188
      ],
      "min": [
        0.01176594477146864,
        0.010123670101165771
      ],
      "type": "VEC2"
    },
    {
      "bufferView": 1,
      "byteOffset": 7776,
      "componentType": 5126,
      "count": 972,
      "max": [
        0.9890194535255432,
        0.9897994995117188
      ],
      "min": [
        0.01176594477146864,
        0.010123670101165771
      ],
      "type": "VEC2"
    },
    {
      "bufferView": 1,
      "byteOffset": 15552,
      "componentType": 5126,
      "count": 972,
      "max": [
        0.9890194535255432,
        0.9897994995117188
      ],
      "min": [
        0.01176594477146864,
        0.010123670101165771
      ],
      "type": "VEC2"
    },
    {
      "bufferView": 0,
      "componentType": 5125,
      "count": 4800,
      "type": "SCALAR"
    }
  ],
  "asset": {
    "extras": {
      "author": "Maker3000 (https://sketchfab.com/fksfhwq2t590p)",
      "license": "CC-BY-4.0 (http://creativecommons.org/licenses/by/4.0/)",
      "source": "https://sketchfab.com/3d-models/paint-3d-plastic-lemon-2a9e10ffd5b0405eaabfe496d61de0bd",
      "title": "Paint 3D - Plastic Lemon"
    },
    "generator": "Sketchfab-12.67.0",
    "version": "2.0"
  },
  "bufferViews": [
    {
      "buffer": 0,
      "byteLength": 19200,
      "name": "floatBufferViews",
      "target": 34963
    },
    {
      "buffer": 0,
      "byteLength": 23328,
      "byteOffset": 19200,
      "byteStride": 8,
      "name": "floatBufferViews",
      "target": 34962
    },
    {
      "buffer": 0,
      "byteLength": 23328,
      "byteOffset": 42528,
      "byteStride": 12,
      "name": "floatBufferViews",
      "target": 34962
    }
  ],
  "buffers": [
    {
      "byteLength": 65856,
      "uri": "scene.bin"
    }
  ],
  "extensionsRequired": [
    "KHR_materials_pbrSpecularGlossiness"
  ],
  "extensionsUsed": [
    "KHR_materials_pbrSpecularGlossiness"
  ],
  "images": [
    {
      "uri": "textures/material_diffuse.png"
    },
    {
      "uri": "textures/material_specularGlossiness.png"
    }
  ],
  "materials": [
    {
      "doubleSided": true,
      "extensions": {
        "KHR_materials_pbrSpecularGlossiness": {
          "diffuseFactor": [
            1.0,
            1.0,
            1.0,
            1.0
          ],
          "diffuseTexture": {
            "index": 0
          },
          "glossinessFactor": 1.0,
          "specularFactor": [
            1.0,
            1.0,
            1.0
          ],
          "specularGlossinessTexture": {
            "index": 1
          }
        }
      },
      "name": "material"
    }
  ],
  "meshes": [
    {
      "name": "Object_0",
      "primitives": [
        {
          "attributes": {
            "NORMAL": 1,
            "POSITION": 0,
            "TEXCOORD_0": 2,
            "TEXCOORD_1": 3,
            "TEXCOORD_2": 4
          },
          "indices": 5,
          "material": 0,
          "mode": 4
        }
      ]
    }
  ],
  "nodes": [
    {
      "children": [
        1
      ],
      "matrix": [
        1.0,
        0.0,
        0.0,
        0.0,
        0.0,
        2.220446049250313e-16,
        -1.0,
        0.0,
        0.0,
        1.0,
        2.220446049250313e-16,
        0.0,
        0.0,
        0.0,
        0.0,
        1.0
      ],
      "name": "Sketchfab_model"
    },
    {
      "children": [
        2
      ],
      "name": "root"
    },
    {
      "children": [
        3
      ],
      "matrix": [
        1.0,
        0.0,
        0.0,
        0.0,
        0.0,
        2.220446049250313e-16,
        1.0,
        0.0,
        0.0,
        -1.0,
        2.220446049250313e-16,
        0.0,
        0.0,
        0.0,
        0.0,
        1.0
      ],
      "name": "GLTF_SceneRootNode"
    },
    {
      "children": [
        4
      ],
      "name": "root_0"
    },
    {
      "children": [
        5
      ],
      "matrix": [
        0.0042200773023068905,
        0.0,
        0.0,
        0.0,
        0.0,
        0.0042200773023068905,
        0.0,
        0.0,
        0.0,
        0.0,
        0.0042200773023068905,
        0.0,
        -0.007545573636889458,
        -0.07354944944381714,
        0.35551223158836365,
        1.0
      ],
      "name": "node_id30_1"
    },
    {
      "mesh": 0,
      "name": "Object_5"
    }
  ],
  "samplers": [
    {
      "magFilter": 9729,
      "minFilter": 9987,
      "wrapS": 10497,
      "wrapT": 10497
    }
  ],
  "scene": 0,
  "scenes": [
    {
      "name": "Sketchfab_Scene",
      "nodes": [
        0
      ]
    }
  ],
  "textures": [
    {
      "sampler": 0,
      "source": 0
    },
    {
      "sampler": 0,
      "source": 1
    }
  ]
}
