{
	"asset":{
		"generator":"Khronos glTF Blender I/O v4.3.47",
		"version":"2.0"
	},
	"scene":0,
	"scenes":[
		{
			"name":"Scene",
			"nodes":[
				3
			]
		}
	],
	"nodes":[
		{
			"name":"Body.000_3"
		},
		{
			"mesh":0,
			"name":"Object_12",
			"translation":[
				0.31270697712898254,
				0,
				0.8595283031463623
			]
		},
		{
			"children":[
				1
			],
			"name":"Head.000_4"
		},
		{
			"children":[
				0,
				2
			],
			"name":"Reindeer_5",
			"rotation":[
				0,
				0.33317887783050537,
				0,
				0.9428636431694031
			],
			"translation":[
				-0.7723825573921204,
				0,
				-0.4751998782157898
			]
		}
	],
	"materials":[
		{
			"doubleSided":true,
			"name":"Head.001",
			"pbrMetallicRoughness":{
				"baseColorTexture":{
					"index":0
				},
				"metallicFactor":0
			}
		}
	],
	"meshes":[
		{
			"name":"Object_3",
			"primitives":[
				{
					"attributes":{
						"POSITION":0,
						"NORMAL":1,
						"TEXCOORD_0":2
					},
					"indices":3,
					"material":0
				}
			]
		}
	],
	"textures":[
		{
			"sampler":0,
			"source":0
		}
	],
	"images":[
		{
			"mimeType":"image/png",
			"name":"Head.001_baseColor",
			"uri":"Head_001_baseColor.png"
		}
	],
	"accessors":[
		{
			"bufferView":0,
			"componentType":5126,
			"count":1002,
			"max":[
				0.3260025382041931,
				1.2697722911834717,
				0.35848164558410645
			],
			"min":[
				-0.3260025978088379,
				0.5526420474052429,
				-0.2698288857936859
			],
			"type":"VEC3"
		},
		{
			"bufferView":1,
			"componentType":5126,
			"count":1002,
			"type":"VEC3"
		},
		{
			"bufferView":2,
			"componentType":5126,
			"count":1002,
			"type":"VEC2"
		},
		{
			"bufferView":3,
			"componentType":5123,
			"count":5016,
			"type":"SCALAR"
		}
	],
	"bufferViews":[
		{
			"buffer":0,
			"byteLength":12024,
			"byteOffset":0,
			"target":34962
		},
		{
			"buffer":0,
			"byteLength":12024,
			"byteOffset":12024,
			"target":34962
		},
		{
			"buffer":0,
			"byteLength":8016,
			"byteOffset":24048,
			"target":34962
		},
		{
			"buffer":0,
			"byteLength":10032,
			"byteOffset":32064,
			"target":34963
		}
	],
	"samplers":[
		{
			"magFilter":9729,
			"minFilter":9987
		}
	],
	"buffers":[
		{
			"byteLength":42096,
			"uri":"scene.bin"
		}
	]
}
