{
	"asset":{
		"generator":"Khronos glTF Blender I/O v4.0.43",
		"version":"2.0"
	},
	"scene":0,
	"scenes":[
		{
			"name":"Scene",
			"nodes":[
				14
			]
		}
	],
	"nodes":[
		{
			"mesh":0,
			"name":"Object_5"
		},
		{
			"mesh":1,
			"name":"Object_6"
		},
		{
			"mesh":2,
			"name":"Object_7"
		},
		{
			"children":[
				0,
				1,
				2
			],
			"name":"cotton candy_1"
		},
		{
			"mesh":3,
			"name":"Object_10"
		},
		{
			"mesh":4,
			"name":"Object_11"
		},
		{
			"mesh":5,
			"name":"Object_12"
		},
		{
			"mesh":6,
			"name":"Object_13"
		},
		{
			"mesh":7,
			"name":"Object_14"
		},
		{
			"mesh":8,
			"name":"Object_9"
		},
		{
			"children":[
				4,
				5,
				6,
				7,
				8,
				9
			],
			"name":"cotton candy_2"
		},
		{
			"children":[
				3,
				10
			],
			"name":"cotton candy 1_0",
			"rotation":[
				0,
				0,
				-0.0745169073343277,
				0.9972197413444519
			],
			"scale":[
				1.3273253440856934,
				1.3273253440856934,
				1.327325463294983
			],
			"translation":[
				-0.10781319439411163,
				0.5854778289794922,
				0.1441545933485031
			]
		},
		{
			"children":[
				11
			],
			"name":"GLTF_SceneRootNode",
			"rotation":[
				0.70710688829422,
				0,
				0,
				0.7071066498756409
			]
		},
		{
			"children":[
				12
			],
			"name":"root"
		},
		{
			"children":[
				13
			],
			"name":"Sketchfab_model",
			"rotation":[
				-0.70710688829422,
				0,
				0,
				0.7071066498756409
			]
		}
	],
	"materials":[
		{
			"doubleSided":true,
			"name":"material_0",
			"pbrMetallicRoughness":{
				"baseColorFactor":[
					0.7476023435592651,
					0.19320422410964966,
					0.800315260887146,
					1
				],
				"metallicFactor":0,
				"roughnessFactor":0.800000011920929
			}
		},
		{
			"doubleSided":true,
			"name":"Material",
			"pbrMetallicRoughness":{
				"baseColorFactor":[
					0.800000011920929,
					0.800000011920929,
					0.800000011920929,
					1
				],
				"metallicFactor":0,
				"roughnessFactor":0.5
			}
		},
		{
			"doubleSided":true,
			"name":"material_1",
			"pbrMetallicRoughness":{
				"baseColorFactor":[
					0.8010704517364502,
					0,
					0.7170173525810242,
					1
				],
				"metallicFactor":0,
				"roughnessFactor":0.8318182229995728
			}
		}
	],
	"meshes":[
		{
			"name":"Object_0",
			"primitives":[
				{
					"attributes":{
						"COLOR_0":0,
						"POSITION":1,
						"NORMAL":2
					},
					"indices":3,
					"material":0
				}
			]
		},
		{
			"name":"Object_1",
			"primitives":[
				{
					"attributes":{
						"COLOR_0":4,
						"POSITION":5,
						"NORMAL":6
					},
					"indices":7,
					"material":1
				}
			]
		},
		{
			"name":"Object_2",
			"primitives":[
				{
					"attributes":{
						"COLOR_0":8,
						"POSITION":9,
						"NORMAL":10
					},
					"indices":11,
					"material":0
				}
			]
		},
		{
			"name":"Object_4",
			"primitives":[
				{
					"attributes":{
						"COLOR_0":12,
						"POSITION":13,
						"NORMAL":14
					},
					"indices":15,
					"material":2
				}
			]
		},
		{
			"name":"Object_5",
			"primitives":[
				{
					"attributes":{
						"COLOR_0":16,
						"POSITION":17,
						"NORMAL":18
					},
					"indices":19,
					"material":2
				}
			]
		},
		{
			"name":"Object_6",
			"primitives":[
				{
					"attributes":{
						"COLOR_0":20,
						"POSITION":21,
						"NORMAL":22
					},
					"indices":23,
					"material":2
				}
			]
		},
		{
			"name":"Object_7",
			"primitives":[
				{
					"attributes":{
						"COLOR_0":24,
						"POSITION":25,
						"NORMAL":26
					},
					"indices":27,
					"material":2
				}
			]
		},
		{
			"name":"Object_8",
			"primitives":[
				{
					"attributes":{
						"COLOR_0":28,
						"POSITION":29,
						"NORMAL":30
					},
					"indices":31,
					"material":2
				}
			]
		},
		{
			"name":"Object_3",
			"primitives":[
				{
					"attributes":{
						"COLOR_0":32,
						"POSITION":33,
						"NORMAL":34
					},
					"indices":35,
					"material":2
				}
			]
		}
	],
	"accessors":[
		{
			"bufferView":0,
			"componentType":5123,
			"count":113183,
			"normalized":true,
			"type":"VEC4"
		},
		{
			"bufferView":1,
			"componentType":5126,
			"count":113183,
			"max":[
				0.25369513034820557,
				-0.5119308829307556,
				0.03947167098522186
			],
			"min":[
				0.046176135540008545,
				-1.0489734411239624,
				-0.15589715540409088
			],
			"type":"VEC3"
		},
		{
			"bufferView":2,
			"componentType":5126,
			"count":113183,
			"type":"VEC3"
		},
		{
			"bufferView":3,
			"componentType":5125,
			"count":370977,
			"type":"SCALAR"
		},
		{
			"bufferView":4,
			"componentType":5123,
			"count":76041,
			"normalized":true,
			"type":"VEC4"
		},
		{
			"bufferView":5,
			"componentType":5126,
			"count":76041,
			"max":[
				0.2617729902267456,
				-0.5139862298965454,
				0.03945210576057434
			],
			"min":[
				0.04736946523189545,
				-1.2660017013549805,
				-0.15582239627838135
			],
			"type":"VEC3"
		},
		{
			"bufferView":6,
			"componentType":5126,
			"count":76041,
			"type":"VEC3"
		},
		{
			"bufferView":7,
			"componentType":5125,
			"count":358161,
			"type":"SCALAR"
		},
		{
			"bufferView":8,
			"componentType":5123,
			"count":13898,
			"normalized":true,
			"type":"VEC4"
		},
		{
			"bufferView":9,
			"componentType":5126,
			"count":13898,
			"max":[
				0.2501713037490845,
				-0.5119308829307556,
				0.03377576172351837
			],
			"min":[
				0.046176135540008545,
				-0.958975076675415,
				-0.14594697952270508
			],
			"type":"VEC3"
		},
		{
			"bufferView":10,
			"componentType":5126,
			"count":13898,
			"type":"VEC3"
		},
		{
			"bufferView":11,
			"componentType":5123,
			"count":44931,
			"type":"SCALAR"
		},
		{
			"bufferView":12,
			"componentType":5123,
			"count":65569,
			"normalized":true,
			"type":"VEC4"
		},
		{
			"bufferView":13,
			"componentType":5126,
			"count":65569,
			"max":[
				0.5311462879180908,
				-0.06322383880615234,
				0.21969172358512878
			],
			"min":[
				-0.20534253120422363,
				-0.8250791430473328,
				-0.3993373513221741
			],
			"type":"VEC3"
		},
		{
			"bufferView":14,
			"componentType":5126,
			"count":65569,
			"type":"VEC3"
		},
		{
			"bufferView":15,
			"componentType":5125,
			"count":347583,
			"type":"SCALAR"
		},
		{
			"bufferView":16,
			"componentType":5123,
			"count":65570,
			"normalized":true,
			"type":"VEC4"
		},
		{
			"bufferView":17,
			"componentType":5126,
			"count":65570,
			"max":[
				0.47319188714027405,
				0.03709679841995239,
				0.2082153856754303
			],
			"min":[
				-0.19806626439094543,
				-0.7134987115859985,
				-0.4025617241859436
			],
			"type":"VEC3"
		},
		{
			"bufferView":18,
			"componentType":5126,
			"count":65570,
			"type":"VEC3"
		},
		{
			"bufferView":19,
			"componentType":5125,
			"count":344826,
			"type":"SCALAR"
		},
		{
			"bufferView":20,
			"componentType":5123,
			"count":65574,
			"normalized":true,
			"type":"VEC4"
		},
		{
			"bufferView":21,
			"componentType":5126,
			"count":65574,
			"max":[
				0.5228745937347412,
				0.11459246277809143,
				0.21961185336112976
			],
			"min":[
				-0.13839247822761536,
				-0.8248895406723022,
				-0.4011709988117218
			],
			"type":"VEC3"
		},
		{
			"bufferView":22,
			"componentType":5126,
			"count":65574,
			"type":"VEC3"
		},
		{
			"bufferView":23,
			"componentType":5125,
			"count":343230,
			"type":"SCALAR"
		},
		{
			"bufferView":24,
			"componentType":5123,
			"count":65574,
			"normalized":true,
			"type":"VEC4"
		},
		{
			"bufferView":25,
			"componentType":5126,
			"count":65574,
			"max":[
				0.5352135896682739,
				-0.03980928659439087,
				0.21639376878738403
			],
			"min":[
				-0.20611628890037537,
				-0.8237900733947754,
				-0.40398016571998596
			],
			"type":"VEC3"
		},
		{
			"bufferView":26,
			"componentType":5126,
			"count":65574,
			"type":"VEC3"
		},
		{
			"bufferView":27,
			"componentType":5125,
			"count":338919,
			"type":"SCALAR"
		},
		{
			"bufferView":28,
			"componentType":5123,
			"count":36277,
			"normalized":true,
			"type":"VEC4"
		},
		{
			"bufferView":29,
			"componentType":5126,
			"count":36277,
			"max":[
				0.47679731249809265,
				0.11557438969612122,
				0.2188968062400818
			],
			"min":[
				-0.10800948739051819,
				-0.8206480741500854,
				-0.37842506170272827
			],
			"type":"VEC3"
		},
		{
			"bufferView":30,
			"componentType":5126,
			"count":36277,
			"type":"VEC3"
		},
		{
			"bufferView":31,
			"componentType":5123,
			"count":147231,
			"type":"SCALAR"
		},
		{
			"bufferView":32,
			"componentType":5123,
			"count":65607,
			"normalized":true,
			"type":"VEC4"
		},
		{
			"bufferView":33,
			"componentType":5126,
			"count":65607,
			"max":[
				0.5350879430770874,
				0.05812224745750427,
				0.20355409383773804
			],
			"min":[
				-0.1419447958469391,
				-0.6392245292663574,
				-0.3829307556152344
			],
			"type":"VEC3"
		},
		{
			"bufferView":34,
			"componentType":5126,
			"count":65607,
			"type":"VEC3"
		},
		{
			"bufferView":35,
			"componentType":5125,
			"count":338991,
			"type":"SCALAR"
		}
	],
	"bufferViews":[
		{
			"buffer":0,
			"byteLength":905464,
			"byteOffset":0,
			"target":34962
		},
		{
			"buffer":0,
			"byteLength":1358196,
			"byteOffset":905464,
			"target":34962
		},
		{
			"buffer":0,
			"byteLength":1358196,
			"byteOffset":2263660,
			"target":34962
		},
		{
			"buffer":0,
			"byteLength":1483908,
			"byteOffset":3621856,
			"target":34963
		},
		{
			"buffer":0,
			"byteLength":608328,
			"byteOffset":5105764,
			"target":34962
		},
		{
			"buffer":0,
			"byteLength":912492,
			"byteOffset":5714092,
			"target":34962
		},
		{
			"buffer":0,
			"byteLength":912492,
			"byteOffset":6626584,
			"target":34962
		},
		{
			"buffer":0,
			"byteLength":1432644,
			"byteOffset":7539076,
			"target":34963
		},
		{
			"buffer":0,
			"byteLength":111184,
			"byteOffset":8971720,
			"target":34962
		},
		{
			"buffer":0,
			"byteLength":166776,
			"byteOffset":9082904,
			"target":34962
		},
		{
			"buffer":0,
			"byteLength":166776,
			"byteOffset":9249680,
			"target":34962
		},
		{
			"buffer":0,
			"byteLength":89862,
			"byteOffset":9416456,
			"target":34963
		},
		{
			"buffer":0,
			"byteLength":524552,
			"byteOffset":9506320,
			"target":34962
		},
		{
			"buffer":0,
			"byteLength":786828,
			"byteOffset":10030872,
			"target":34962
		},
		{
			"buffer":0,
			"byteLength":786828,
			"byteOffset":10817700,
			"target":34962
		},
		{
			"buffer":0,
			"byteLength":1390332,
			"byteOffset":11604528,
			"target":34963
		},
		{
			"buffer":0,
			"byteLength":524560,
			"byteOffset":12994860,
			"target":34962
		},
		{
			"buffer":0,
			"byteLength":786840,
			"byteOffset":13519420,
			"target":34962
		},
		{
			"buffer":0,
			"byteLength":786840,
			"byteOffset":14306260,
			"target":34962
		},
		{
			"buffer":0,
			"byteLength":1379304,
			"byteOffset":15093100,
			"target":34963
		},
		{
			"buffer":0,
			"byteLength":524592,
			"byteOffset":16472404,
			"target":34962
		},
		{
			"buffer":0,
			"byteLength":786888,
			"byteOffset":16996996,
			"target":34962
		},
		{
			"buffer":0,
			"byteLength":786888,
			"byteOffset":17783884,
			"target":34962
		},
		{
			"buffer":0,
			"byteLength":1372920,
			"byteOffset":18570772,
			"target":34963
		},
		{
			"buffer":0,
			"byteLength":524592,
			"byteOffset":19943692,
			"target":34962
		},
		{
			"buffer":0,
			"byteLength":786888,
			"byteOffset":20468284,
			"target":34962
		},
		{
			"buffer":0,
			"byteLength":786888,
			"byteOffset":21255172,
			"target":34962
		},
		{
			"buffer":0,
			"byteLength":1355676,
			"byteOffset":22042060,
			"target":34963
		},
		{
			"buffer":0,
			"byteLength":290216,
			"byteOffset":23397736,
			"target":34962
		},
		{
			"buffer":0,
			"byteLength":435324,
			"byteOffset":23687952,
			"target":34962
		},
		{
			"buffer":0,
			"byteLength":435324,
			"byteOffset":24123276,
			"target":34962
		},
		{
			"buffer":0,
			"byteLength":294462,
			"byteOffset":24558600,
			"target":34963
		},
		{
			"buffer":0,
			"byteLength":524856,
			"byteOffset":24853064,
			"target":34962
		},
		{
			"buffer":0,
			"byteLength":787284,
			"byteOffset":25377920,
			"target":34962
		},
		{
			"buffer":0,
			"byteLength":787284,
			"byteOffset":26165204,
			"target":34962
		},
		{
			"buffer":0,
			"byteLength":1355964,
			"byteOffset":26952488,
			"target":34963
		}
	],
	"buffers":[
		{
			"byteLength":28308452,
			"uri":"cottoncandy.bin"
		}
	]
}
