{
  "accessors": [
    {
      "bufferView": 2,
      "componentType": 5126,
      "count": 11101,
      "max": [
        1.701245665550232,
        0.16792592406272888,
        0.7606244087219238
      ],
      "min": [
        -1.701245665550232,
        -0.1462935507297516,
        -0.7606244087219238
      ],
      "type": "VEC3"
    },
    {
      "bufferView": 2,
      "byteOffset": 133212,
      "componentType": 5126,
      "count": 11101,
      "max": [
        0.9990859031677246,
        1.0,
        0.999131441116333
      ],
      "min": [
        -0.9991633296012878,
        -0.9969167709350586,
        -0.9999998807907104
      ],
      "type": "VEC3"
    },
    {
      "bufferView": 3,
      "componentType": 5126,
      "count": 11101,
      "max": [
        1.0,
        0.9992032647132874,
        1.0,
        1.0
      ],
      "min": [
        -1.0,
        -0.9999996423721313,
        -0.8674615025520325,
        1.0
      ],
      "type": "VEC4"
    },
    {
      "bufferView": 1,
      "componentType": 5126,
      "count": 11101,
      "max": [
        0.9980525970458984,
        1.0000001192092896
      ],
      "min": [
        0.0,
        0.0
      ],
      "type": "VEC2"
    },
    {
      "bufferView": 1,
      "byteOffset": 88808,
      "componentType": 5126,
      "count": 11101,
      "max": [
        0.9980525970458984,
        1.0000001192092896
      ],
      "min": [
        0.0,
        0.0
      ],
      "type": "VEC2"
    },
    {
      "bufferView": 1,
      "byteOffset": 177616,
      "componentType": 5126,
      "count": 11101,
      "max": [
        0.9980525970458984,
        1.0000001192092896
      ],
      "min": [
        0.0,
        0.0
      ],
      "type": "VEC2"
    },
    {
      "bufferView": 1,
      "byteOffset": 266424,
      "componentType": 5126,
      "count": 11101,
      "max": [
        0.9980525970458984,
        1.0000001192092896
      ],
      "min": [
        0.0,
        0.0
      ],
      "type": "VEC2"
    },
    {
      "bufferView": 0,
      "componentType": 5125,
      "count": 25557,
      "type": "SCALAR"
    },
    {
      "bufferView": 2,
      "byteOffset": 266424,
      "componentType": 5126,
      "count": 7989,
      "max": [
        1.4095497131347656,
        0.26759985089302063,
        0.9096930623054504
      ],
      "min": [
        -1.17350172996521,
        -0.3110932409763336,
        -0.8624552488327026
      ],
      "type": "VEC3"
    },
    {
      "bufferView": 2,
      "byteOffset": 362292,
      "componentType": 5126,
      "count": 7989,
      "max": [
        0.968974232673645,
        1.0,
        1.0
      ],
      "min": [
        -1.0,
        -1.0,
        -0.9999998807907104
      ],
      "type": "VEC3"
    },
    {
      "bufferView": 3,
      "byteOffset": 177616,
      "componentType": 5126,
      "count": 7989,
      "max": [
        1.0,
        0.9832391142845154,
        0.998763918876648,
        1.0
      ],
      "min": [
        -1.0,
        -0.9981423616409302,
        -1.0,
        -1.0
      ],
      "type": "VEC4"
    },
    {
      "bufferView": 1,
      "byteOffset": 355232,
      "componentType": 5126,
      "count": 7989,
      "max": [
        0.9959959983825684,
        0.9818156957626343
      ],
      "min": [
        0.006852572783827782,
        0.030220987275242805
      ],
      "type": "VEC2"
    },
    {
      "bufferView": 1,
      "byteOffset": 419144,
      "componentType": 5126,
      "count": 7989,
      "max": [
        0.9959959983825684,
        0.9818156957626343
      ],
      "min": [
        0.006852572783827782,
        0.030220987275242805
      ],
      "type": "VEC2"
    },
    {
      "bufferView": 1,
      "byteOffset": 483056,
      "componentType": 5126,
      "count": 7989,
      "max": [
        0.9959959983825684,
        0.9818156957626343
      ],
      "min": [
        0.006852572783827782,
        0.030220987275242805
      ],
      "type": "VEC2"
    },
    {
      "bufferView": 1,
      "byteOffset": 546968,
      "componentType": 5126,
      "count": 7989,
      "max": [
        0.9959959983825684,
        0.9818156957626343
      ],
      "min": [
        0.006852572783827782,
        0.030220987275242805
      ],
      "type": "VEC2"
    },
    {
      "bufferView": 0,
      "byteOffset": 102228,
      "componentType": 5125,
      "count": 40032,
      "type": "SCALAR"
    }
  ],
  "asset": {
    "extras": {
      "author": "Fridge (https://sketchfab.com/youssefdarwish01)",
      "license": "CC-BY-4.0 (http://creativecommons.org/licenses/by/4.0/)",
      "source": "https://sketchfab.com/3d-models/chocolate-bar-0d2dc2567a784fd28e9cb9a43c9f6505",
      "title": "Chocolate Bar"
    },
    "generator": "Sketchfab-15.30.0",
    "version": "2.0"
  },
  "bufferViews": [
    {
      "buffer": 0,
      "byteLength": 262356,
      "name": "floatBufferViews",
      "target": 34963
    },
    {
      "buffer": 0,
      "byteLength": 610880,
      "byteOffset": 262356,
      "byteStride": 8,
      "name": "floatBufferViews",
      "target": 34962
    },
    {
      "buffer": 0,
      "byteLength": 458160,
      "byteOffset": 873236,
      "byteStride": 12,
      "name": "floatBufferViews",
      "target": 34962
    },
    {
      "buffer": 0,
      "byteLength": 305440,
      "byteOffset": 1331396,
      "byteStride": 16,
      "name": "floatBufferViews",
      "target": 34962
    }
  ],
  "buffers": [
    {
      "byteLength": 1636836,
      "uri": "cene.bin"
    }
  ],
  "images": [
    {
      "uri": "textures/Chocolate_MatMain_baseColor.png"
    },
    {
      "uri": "textures/Chocolate_MatMain_metallicRoughness.png"
    },
    {
      "uri": "textures/Chocolate_MatMain_normal.png"
    },
    {
      "uri": "textures/Wrapper_MatMain_baseColor.png"
    },
    {
      "uri": "textures/Wrapper_MatMain_metallicRoughness.png"
    },
    {
      "uri": "textures/Wrapper_MatMain_normal.png"
    }
  ],
  "materials": [
    {
      "doubleSided": true,
      "name": "Chocolate_MatMain",
      "normalTexture": {
        "index": 2,
        "texCoord": 2
      },
      "pbrMetallicRoughness": {
        "baseColorTexture": {
          "index": 0
        },
        "metallicFactor": 0.0,
        "metallicRoughnessTexture": {
          "index": 1,
          "texCoord": 1
        }
      }
    },
    {
      "doubleSided": true,
      "name": "Wrapper_MatMain",
      "normalTexture": {
        "index": 5
      },
      "pbrMetallicRoughness": {
        "baseColorTexture": {
          "index": 3
        },
        "metallicFactor": 0.2,
        "metallicRoughnessTexture": {
          "index": 4
        }
      }
    }
  ],
  "meshes": [
    {
      "name": "Object_0",
      "primitives": [
        {
          "attributes": {
            "NORMAL": 1,
            "POSITION": 0,
            "TANGENT": 2,
            "TEXCOORD_0": 3,
            "TEXCOORD_1": 4,
            "TEXCOORD_2": 5,
            "TEXCOORD_3": 6
          },
          "indices": 7,
          "material": 0,
          "mode": 4
        }
      ]
    },
    {
      "name": "Object_1",
      "primitives": [
        {
          "attributes": {
            "NORMAL": 9,
            "POSITION": 8,
            "TANGENT": 10,
            "TEXCOORD_0": 11,
            "TEXCOORD_1": 12,
            "TEXCOORD_2": 13,
            "TEXCOORD_3": 14
          },
          "indices": 15,
          "material": 1,
          "mode": 4
        }
      ]
    }
  ],
  "nodes": [
    {
      "children": [
        1
      ],
      "matrix": [
        1.0,
        0.0,
        0.0,
        0.0,
        0.0,
        2.220446049250313e-16,
        -1.0,
        0.0,
        0.0,
        1.0,
        2.220446049250313e-16,
        0.0,
        0.0,
        0.0,
        0.0,
        1.0
      ],
      "name": "Sketchfab_model"
    },
    {
      "children": [
        2
      ],
      "name": "root"
    },
    {
      "children": [
        3,
        5
      ],
      "matrix": [
        1.0,
        0.0,
        0.0,
        0.0,
        0.0,
        2.220446049250313e-16,
        1.0,
        0.0,
        0.0,
        -1.0,
        2.220446049250313e-16,
        0.0,
        0.0,
        0.0,
        0.0,
        1.0
      ],
      "name": "GLTF_SceneRootNode"
    },
    {
      "children": [
        4
      ],
      "name": "Chocolate_ModelMain_0"
    },
    {
      "mesh": 0,
      "name": "Object_4"
    },
    {
      "children": [
        6
      ],
      "matrix": [
        1.0,
        0.0,
        0.0,
        0.0,
        0.0,
        1.0,
        0.0,
        0.0,
        0.0,
        0.0,
        1.0,
        0.0,
        -0.8377723097801208,
        6.73532485961914e-05,
        0.0,
        1.0
      ],
      "name": "Wrapper_ModelMain_1"
    },
    {
      "mesh": 1,
      "name": "Object_6"
    }
  ],
  "samplers": [
    {
      "magFilter": 9729,
      "minFilter": 9987,
      "wrapS": 10497,
      "wrapT": 10497
    }
  ],
  "scene": 0,
  "scenes": [
    {
      "name": "Sketchfab_Scene",
      "nodes": [
        0
      ]
    }
  ],
  "textures": [
    {
      "sampler": 0,
      "source": 0
    },
    {
      "sampler": 0,
      "source": 1
    },
    {
      "sampler": 0,
      "source": 2
    },
    {
      "sampler": 0,
      "source": 3
    },
    {
      "sampler": 0,
      "source": 4
    },
    {
      "sampler": 0,
      "source": 5
    }
  ]
}
